<?xml version="1.0" encoding="UTF-8"?>
<svg width="80px" height="80px" viewBox="0 0 80 80" version="1.1" xmlns="http://www.w3.org/2000/svg" xmlns:xlink="http://www.w3.org/1999/xlink">
    <title>avatar-43</title>
    <defs>
        <rect id="path-1" x="0" y="0" width="80" height="80" rx="40"></rect>
    </defs>
    <g id="Avatars" stroke="none" stroke-width="1" fill="none" fill-rule="evenodd">
        <g id="Artboard" transform="translate(-624.000000, -312.000000)">
            <g id="avatar-43" transform="translate(624.000000, 312.000000)">
                <mask id="mask-2" fill="white">
                    <use xlink:href="#path-1"></use>
                </mask>
                <g id="Rectangle"></g>
                <g id="Group" mask="url(#mask-2)">
                    <g transform="translate(-15.460487, -2.195886)">
                        <rect id="Rectangle" fill="#FDE68A" fill-rule="nonzero" x="15.4604869" y="2.19588571" width="80" height="80"></rect>
                        <rect id="Rectangle" fill="#EC8F5E" fill-rule="nonzero" transform="translate(66.635063, 66.635063) rotate(56.000000) translate(-66.635063, -66.635063) " x="18.6350628" y="18.6350628" width="96" height="96" rx="13.3333333"></rect>
                        <g id="Group" stroke-width="1" fill="none" fill-rule="evenodd" transform="translate(55.779879, 58.568036) rotate(-6.000000) translate(-55.779879, -58.568036) translate(44.668768, 46.623591)">
                            <path d="M5.21543857e-14,15.5555556 C5.21543857e-14,20.1579285 4.97461389,23.8888889 11.1111111,23.8888889 C17.2476083,23.8888889 22.2222222,20.1579285 22.2222222,15.5555556" id="Path" fill="#000000" fill-rule="nonzero"></path>
                            <rect id="Rectangle" fill="#000000" fill-rule="nonzero" x="3.48875549e-14" y="-1.47186519e-14" width="3.33333333" height="4.44444444" rx="1.66666667"></rect>
                            <rect id="Rectangle" fill="#0E0805" fill-rule="nonzero" x="17.7777778" y="-1.62212512e-14" width="3.33333333" height="4.44444444" rx="1.66666667"></rect>
                        </g>
                    </g>
                </g>
            </g>
        </g>
    </g>
</svg>