<?xml version="1.0" encoding="UTF-8"?>
<svg width="80px" height="80px" viewBox="0 0 80 80" version="1.1" xmlns="http://www.w3.org/2000/svg" xmlns:xlink="http://www.w3.org/1999/xlink">
    <title>avatar-35</title>
    <defs>
        <rect id="path-1" x="0" y="0" width="80" height="80" rx="40"></rect>
    </defs>
    <g id="Avatars" stroke="none" stroke-width="1" fill="none" fill-rule="evenodd">
        <g id="Artboard" transform="translate(-1040.000000, -208.000000)">
            <g id="avatar-35" transform="translate(1040.000000, 208.000000)">
                <mask id="mask-2" fill="white">
                    <use xlink:href="#path-1"></use>
                </mask>
                <g id="Rectangle"></g>
                <g id="Group" mask="url(#mask-2)">
                    <g transform="translate(-8.705286, 0.000000)">
                        <rect id="Rectangle" fill="#94C843" fill-rule="nonzero" x="8.70528631" y="0" width="80" height="80"></rect>
                        <rect id="Rectangle" fill="#FDE68A" fill-rule="nonzero" transform="translate(42.038620, 55.555556) rotate(87.000000) translate(-42.038620, -55.555556) " x="2.03861964" y="15.5555556" width="80" height="80" rx="40"></rect>
                        <g id="Group" stroke-width="1" fill="none" fill-rule="evenodd" transform="translate(32.699874, 48.672605) rotate(-7.000000) translate(-32.699874, -48.672605) translate(19.922096, 38.950383)">
                            <path d="M2.22222222,11.1111111 C2.22222222,15.713484 7.19683611,19.4444444 13.3333333,19.4444444 C19.4698306,19.4444444 24.4444444,15.713484 24.4444444,11.1111111" id="Path" fill="#000000" fill-rule="nonzero"></path>
                            <rect id="Rectangle" fill="#000000" fill-rule="nonzero" x="-2.58090981e-15" y="-1.81637566e-15" width="3.33333333" height="4.44444444" rx="1.66666667"></rect>
                            <rect id="Rectangle" fill="#000000" fill-rule="nonzero" x="22.2222222" y="9.51927149e-16" width="3.33333333" height="4.44444444" rx="1.66666667"></rect>
                        </g>
                    </g>
                </g>
            </g>
        </g>
    </g>
</svg>