<?xml version="1.0" encoding="UTF-8"?>
<svg width="32px" height="32px" viewBox="0 0 32 32" version="1.1" xmlns="http://www.w3.org/2000/svg" xmlns:xlink="http://www.w3.org/1999/xlink">
    <title>balance</title>
    <g id="Main-functionality" stroke="none" stroke-width="1" fill="none" fill-rule="evenodd">
        <g id="iPhone-12-Pro" transform="translate(-32.000000, -459.000000)" fill="#DC2626" fill-rule="nonzero">
            <g id="Group-4" transform="translate(18.000000, 445.000000)">
                <g id="balance" transform="translate(14.000000, 14.000000)">
                    <path d="M24.4375,31 C24.4375,29.4466875 23.1783125,28.1875 21.625,28.1875 L10.375,28.1875 C8.8216875,28.1875 7.5625,29.4466875 7.5625,31 L7.5625,32 L24.4375,32 L24.4375,31 Z" id="Path"></path>
                    <path d="M30.125,7.5625 L30.125,5.6875 L18.6398125,5.6875 C18.3565625,4.89325 17.73175,4.2684375 16.9375,3.9851875 L16.9375,0 L15.0625,0 L15.0625,3.9851875 C14.26825,4.2684375 13.6434375,4.89325 13.3601875,5.6875 L1.875,5.6875 L1.875,7.5625 L4.219,7.5625 L0,17.875 C0,20.4595625 2.1029375,22.5625 4.6875,22.5625 L6.5625,22.5625 C9.1470625,22.5625 11.25,20.4595625 11.25,17.875 L7.0119375,7.5625 L13.36025,7.5625 C13.6435,8.35675 14.2683125,8.9815625 15.0625625,9.2648125 L15.0625625,22.66525 C13.230375,23.0401875 11.781,24.479625 11.4074375,26.3125 L20.5926875,26.3125 C20.219125,24.479625 18.76975,23.0401875 16.9375625,22.66525 L16.9375625,9.2648125 C17.7318125,8.9815625 18.356625,8.35675 18.639875,7.5625 L24.9690625,7.5625 L20.75,17.875 C20.75,20.4595625 22.8529375,22.5625 25.4375,22.5625 L27.3125,22.5625 C29.8970625,22.5625 32,20.4595625 32,17.875 L27.7619375,7.5625 L30.125,7.5625 Z M8.906,16.9375 L2.344,16.9375 L5.625,9.062125 L8.906,16.9375 Z M29.656,16.9375 L23.094,16.9375 L26.375,9.062125 L29.656,16.9375 Z" id="Shape"></path>
                </g>
            </g>
        </g>
    </g>
</svg>