<?xml version="1.0" encoding="UTF-8"?>
<svg width="24px" height="24px" viewBox="0 0 24 24" version="1.1" xmlns="http://www.w3.org/2000/svg" xmlns:xlink="http://www.w3.org/1999/xlink">
    <title>Shape</title>
    <g id="Share-deck" stroke="none" stroke-width="1" fill="none" fill-rule="evenodd">
        <g id="Extra-Large" transform="translate(-902.000000, -335.000000)" fill="#94A3B8" fill-rule="nonzero">
            <g id="Group-6" transform="translate(866.000000, 127.000000)">
                <g id="Group-4" transform="translate(36.000000, 208.000000)">
                    <path d="M20.4671789,1.96481708 L14.7808514,0.218644099 C12.1698864,-0.576574865 9.40270873,0.863982265 8.55649287,3.4589651 L8.36848204,3.9980185 L5.00028802,3.9980185 C2.24007588,4.00132495 0.00330630678,6.23818727 0,8.99851388 L0,18.9995046 C0.00330630678,21.7598312 2.24007588,23.9966936 5.00028802,24 L11.0006337,24 C12.5357862,23.9946302 13.9824915,23.2808434 14.9208595,22.0658084 C15.1490755,22.0989207 15.3792987,22.1162967 15.6098992,22.1178135 C17.8153913,22.1195136 19.7588965,20.6692526 20.3851742,18.5544605 L23.801371,8.15443026 C24.5605339,5.52751823 23.078383,2.77604493 20.4671789,1.96481708 Z M11.0006337,21.9998019 L5.00028802,21.9998019 C3.34333833,21.9998019 2.00011521,20.656523 2.00011521,18.9995046 L2.00011521,8.99851388 C2.00011521,7.34149548 3.34333833,5.99821665 5.00028802,5.99821665 L11.0006337,5.99821665 C12.6575833,5.99821665 14.0008065,7.34149548 14.0008065,8.99851388 L14.0008065,18.9995046 C14.0008065,20.656523 12.6575833,21.9998019 11.0006337,21.9998019 Z M21.8882608,7.56137151 L18.4760643,17.9624019 C18.1290955,19.139789 17.0983089,19.985862 15.8759145,20.0966133 C15.95802,19.7366578 15.9999454,19.368705 16.0009217,18.9995046 L16.0009217,8.99851388 C15.9976154,6.23818727 13.7608458,4.00132495 11.0006337,3.9980185 L10.4936044,3.9980185 C11.029852,2.48675221 12.6596419,1.6643349 14.1938176,2.13083353 L19.8801451,3.87700652 C21.4376084,4.35762836 22.3283558,5.99191599 21.8882608,7.56137151 L21.8882608,7.56137151 Z" id="Shape"></path>
                </g>
            </g>
        </g>
    </g>
</svg>